<svg xmlns="http://www.w3.org/2000/svg" width="512" height="512" viewBox="0 0 512 512">
<g>
<path d="M 220.45 510.61 C216.41,508.83 212.28,503.79 211.10,499.20 C210.57,497.17 207.35,484.02 203.94,470.00 C200.53,455.98 197.39,443.83 196.96,443.00 C196.53,442.17 193.10,440.41 189.34,439.09 C185.58,437.76 178.41,434.78 173.42,432.47 L 164.34 428.27 L 141.92 441.77 C118.91,455.63 115.04,457.21 108.31,455.55 C105.12,454.77 59.86,410.42 57.31,405.58 C56.30,403.65 55.93,401.04 56.24,397.86 C56.62,393.88 59.03,389.16 70.25,370.43 L 83.79 347.80 L 79.57 338.65 C77.25,333.62 74.27,326.41 72.94,322.62 C71.40,318.20 69.82,315.43 68.52,314.87 C67.41,314.38 53.72,310.88 38.10,307.08 C9.40,300.10 6.61,299.04 2.56,293.61 C0.57,290.95 0.50,289.64 0.50,256.00 C0.50,222.36 0.57,221.05 2.56,218.39 C6.64,212.92 9.41,211.87 38.13,204.90 C53.73,201.11 67.40,197.61 68.50,197.13 C69.77,196.57 71.39,193.72 72.93,189.37 C74.26,185.59 76.83,179.24 78.64,175.26 L 81.94 168.03 L 66.80 142.84 C50.26,115.30 49.01,111.99 52.42,104.81 C53.33,102.90 64.29,91.20 76.78,78.80 C100.79,54.99 103.40,53.10 110.51,54.44 C112.36,54.78 124.37,61.42 137.19,69.18 C150.01,76.94 161.18,83.47 162.01,83.70 C162.84,83.92 167.79,82.14 173.01,79.73 C178.23,77.32 185.59,74.27 189.38,72.94 C193.80,71.40 196.57,69.82 197.13,68.52 C197.62,67.41 201.13,53.70 204.95,38.07 C211.94,9.39 213.01,6.58 218.39,2.56 C221.05,0.57 222.36,0.50 256.00,0.50 C289.64,0.50 290.95,0.57 293.61,2.56 C299.08,6.64 300.13,9.41 307.10,38.13 C310.89,53.73 314.39,67.40 314.87,68.50 C315.43,69.77 318.27,71.39 322.63,72.92 C326.41,74.25 333.26,77.06 337.85,79.17 C342.44,81.28 346.57,83.00 347.02,83.00 C347.47,83.00 358.53,76.59 371.60,68.75 C394.10,55.26 395.65,54.50 400.50,54.55 C404.07,54.58 406.52,55.24 408.56,56.72 C410.18,57.88 421.69,69.11 434.13,81.67 C454.55,102.27 456.83,104.90 457.45,108.62 C458.36,114.15 457.47,116.08 442.41,141.14 C435.45,152.73 429.56,162.96 429.32,163.88 C429.08,164.80 430.63,169.36 432.77,174.02 C434.91,178.69 437.75,185.59 439.08,189.37 C440.61,193.73 442.23,196.57 443.50,197.13 C444.60,197.62 458.28,201.12 473.90,204.92 C502.60,211.90 505.39,212.96 509.44,218.39 C511.43,221.05 511.50,222.36 511.50,256.00 C511.50,289.64 511.43,290.95 509.44,293.61 C505.39,299.04 502.60,300.10 473.90,307.08 C458.28,310.88 444.60,314.38 443.50,314.87 C442.31,315.39 440.75,317.93 439.66,321.13 C438.64,324.08 435.81,331.04 433.35,336.58 L 428.89 346.67 L 442.95 370.08 C450.68,382.96 457.27,394.93 457.60,396.68 C458.88,403.50 456.79,406.42 434.61,428.87 C409.03,454.77 407.48,456.00 400.50,456.00 C395.60,456.00 393.96,455.20 371.79,441.97 L 348.29 427.93 L 338.89 432.28 C333.73,434.67 326.41,437.71 322.62,439.04 C318.21,440.59 315.43,442.18 314.87,443.48 C314.38,444.59 310.87,458.30 307.05,473.93 C300.06,502.60 298.99,505.42 293.62,509.44 C290.97,511.41 289.44,511.51 257.18,511.73 C230.70,511.91 222.85,511.67 220.45,510.61 ZM 270.31 359.92 C311.77,353.73 345.28,324.52 356.83,284.50 C372.76,229.31 340.31,171.28 284.50,155.17 C229.31,139.24 171.28,171.69 155.17,227.50 C136.20,293.21 186.12,360.05 254.81,360.90 C259.38,360.95 266.35,360.52 270.31,359.92 Z" fill="rgba(0,0,0,1)"/>
</g>
</svg>